<svg xmlns="http://www.w3.org/2000/svg" viewBox="0 0 256 256" role="img" aria-labelledby="title desc"><title id="title">VoeTupper</title><desc id="desc">Marca em tons de rosa com asas e coração central</desc><defs><linearGradient id="g" x1="0" x2="1" y1="0" y2="1"><stop offset="0" stop-color="#ff73ad"/><stop offset="1" stop-color="#f72578"/></linearGradient></defs><rect width="256" height="256" rx="64" fill="#fff5fa"/><path d="M121 121C94 88 62 74 26 78c15 10 27 21 36 34-13-3-27-4-41-1 22 15 39 32 52 52 17-3 33-11 48-24z" fill="url(#g)"/><path d="M135 121c27-33 59-47 95-43-15 10-27 21-36 34 13-3 27-4 41-1-22 15-39 32-52 52-17-3-33-11-48-24z" fill="url(#g)"/><path d="M128 154c-23-16-38-31-38-49 0-13 10-23 23-23 8 0 14 4 19 10 5-6 11-10 19-10 13 0 23 10 23 23 0 18-15 33-38 49l-4 3z" fill="#f72578"/><path d="M91 121l-24-15 14 27-22-4 30 21" fill="none" stroke="#fff" stroke-width="7" stroke-linecap="round" stroke-linejoin="round" opacity=".9"/><path d="M165 121l24-15-14 27 22-4-30 21" fill="none" stroke="#fff" stroke-width="7" stroke-linecap="round" stroke-linejoin="round" opacity=".9"/></svg>